{"asset":{"version":"2.0","generator":"Blockbench 4.12.6 glTF exporter"},"scenes":[{"nodes":[17],"name":"blockbench_export"}],"scene":0,"nodes":[{"translation":[0,0.14375,-0.00625],"name":"pivot","mesh":0},{"name":"pivot","children":[0]},{"rotation":[0,0,0.043619387365336,0.9990482215818578],"translation":[0.075,-0.09375,0],"name":"right_leg","mesh":1},{"name":"right_leg","children":[2]},{"rotation":[0,0,-0.043619387365336,0.9990482215818578],"translation":[-0.075,-0.09375,0],"name":"left_leg","mesh":2},{"name":"left_leg","children":[4]},{"rotation":[-0.06540312923014306,0,0,0.9978589232386035],"translation":[0,0.70625,0],"name":"head","mesh":3},{"rotation":[0.11320321376790671,0,0,0.9935718556765875],"translation":[-0.0625,0.70625,0],"name":"left_horn","mesh":4},{"rotation":[0.11320321376790671,0,0,0.9935718556765875],"translation":[0.0625,0.71875,0],"name":"right_horn","mesh":5},{"name":"head","children":[6,7,8]},{"translation":[0,0.0625,0],"name":"red_dress","mesh":6},{"translation":[-0.00625,0.43125,0],"name":"torus","mesh":7},{"translation":[0,0.125,0],"name":"red_dress","children":[10,11]},{"rotation":[-0.7798844830928817,0,0,0.6259234721840591],"translation":[0.2,0.2875,0],"name":"sheet","mesh":8},{"rotation":[0,0,0.6977904598416802,0.7163019434246543],"translation":[0.45,0.33125,0.24375],"name":"ring","mesh":9},{"rotation":[-0.7771459614569709,0,0,0.6293203910498375],"translation":[0.2,0.36875,0.3875],"name":"handle","mesh":10},{"name":"sting","children":[13,14,15]},{"children":[1,3,5,9,12,16]}],"bufferViews":[{"buffer":0,"byteOffset":0,"byteLength":288,"target":34962,"byteStride":12},{"buffer":0,"byteOffset":288,"byteLength":288,"target":34962,"byteStride":12},{"buffer":0,"byteOffset":576,"byteLength":192,"target":34962,"byteStride":8},{"buffer":0,"byteOffset":768,"byteLength":72,"target":34963},{"buffer":0,"byteOffset":840,"byteLength":1152,"target":34962,"byteStride":12},{"buffer":0,"byteOffset":1992,"byteLength":1152,"target":34962,"byteStride":12},{"buffer":0,"byteOffset":3144,"byteLength":768,"target":34962,"byteStride":8},{"buffer":0,"byteOffset":3912,"byteLength":264,"target":34963},{"buffer":0,"byteOffset":4176,"byteLength":1152,"target":34962,"byteStride":12},{"buffer":0,"byteOffset":5328,"byteLength":1152,"target":34962,"byteStride":12},{"buffer":0,"byteOffset":6480,"byteLength":768,"target":34962,"byteStride":8},{"buffer":0,"byteOffset":7248,"byteLength":264,"target":34963},{"buffer":0,"byteOffset":7512,"byteLength":3168,"target":34962,"byteStride":12},{"buffer":0,"byteOffset":10680,"byteLength":3168,"target":34962,"byteStride":12},{"buffer":0,"byteOffset":13848,"byteLength":2112,"target":34962,"byteStride":8},{"buffer":0,"byteOffset":15960,"byteLength":720,"target":34963},{"buffer":0,"byteOffset":16680,"byteLength":1440,"target":34962,"byteStride":12},{"buffer":0,"byteOffset":18120,"byteLength":1440,"target":34962,"byteStride":12},{"buffer":0,"byteOffset":19560,"byteLength":960,"target":34962,"byteStride":8},{"buffer":0,"byteOffset":20520,"byteLength":288,"target":34963},{"buffer":0,"byteOffset":20808,"byteLength":1440,"target":34962,"byteStride":12},{"buffer":0,"byteOffset":22248,"byteLength":1440,"target":34962,"byteStride":12},{"buffer":0,"byteOffset":23688,"byteLength":960,"target":34962,"byteStride":8},{"buffer":0,"byteOffset":24648,"byteLength":288,"target":34963},{"buffer":0,"byteOffset":24936,"byteLength":864,"target":34962,"byteStride":12},{"buffer":0,"byteOffset":25800,"byteLength":864,"target":34962,"byteStride":12},{"buffer":0,"byteOffset":26664,"byteLength":576,"target":34962,"byteStride":8},{"buffer":0,"byteOffset":27240,"byteLength":144,"target":34963},{"buffer":0,"byteOffset":27384,"byteLength":4608,"target":34962,"byteStride":12},{"buffer":0,"byteOffset":31992,"byteLength":4608,"target":34962,"byteStride":12},{"buffer":0,"byteOffset":36600,"byteLength":3072,"target":34962,"byteStride":8},{"buffer":0,"byteOffset":39672,"byteLength":1152,"target":34963},{"buffer":0,"byteOffset":40824,"byteLength":864,"target":34962,"byteStride":12},{"buffer":0,"byteOffset":41688,"byteLength":864,"target":34962,"byteStride":12},{"buffer":0,"byteOffset":42552,"byteLength":576,"target":34962,"byteStride":8},{"buffer":0,"byteOffset":43128,"byteLength":144,"target":34963},{"buffer":0,"byteOffset":43272,"byteLength":2304,"target":34962,"byteStride":12},{"buffer":0,"byteOffset":45576,"byteLength":2304,"target":34962,"byteStride":12},{"buffer":0,"byteOffset":47880,"byteLength":1536,"target":34962,"byteStride":8},{"buffer":0,"byteOffset":49416,"byteLength":576,"target":34963},{"buffer":0,"byteOffset":49992,"byteLength":1440,"target":34962,"byteStride":12},{"buffer":0,"byteOffset":51432,"byteLength":1440,"target":34962,"byteStride":12},{"buffer":0,"byteOffset":52872,"byteLength":960,"target":34962,"byteStride":8},{"buffer":0,"byteOffset":53832,"byteLength":288,"target":34963}],"buffers":[{"byteLength":54120,"uri":"data:application/octet-stream;base64,"}],"accessors":[{"bufferView":0,"componentType":5126,"count":24,"max":[0.05000000074505806,0.4000000059604645,0.05000000074505806],"min":[-0.05000000074505806,0.10000000149011612,-0.05000000074505806],"type":"VEC3"},{"bufferView":1,"componentType":5126,"count":24,"max":[1,1,1],"min":[-1,-1,-1],"type":"VEC3"},{"bufferView":2,"componentType":5126,"count":24,"max":[0.5,0.53125],"min":[0.140625,0],"type":"VEC2"},{"bufferView":3,"componentType":5123,"count":36,"max":[23],"min":[0],"type":"SCALAR"},{"bufferView":4,"componentType":5126,"count":96,"max":[0.01875000074505806,0.40625,0.01875000074505806],"min":[-0.01875000074505806,0.09375,-0.01875000074505806],"type":"VEC3"},{"bufferView":5,"componentType":5126,"count":96,"max":[1,1,1],"min":[-1,-1,-1],"type":"VEC3"},{"bufferView":6,"componentType":5126,"count":96,"max":[0.44081249833106995,0.5938249826431274],"min":[0,0],"type":"VEC2"},{"bufferView":7,"componentType":5123,"count":132,"max":[95],"min":[0],"type":"SCALAR"},{"bufferView":8,"componentType":5126,"count":96,"max":[0.01875000074505806,0.40625,0.01875000074505806],"min":[-0.01875000074505806,0.09375,-0.01875000074505806],"type":"VEC3"},{"bufferView":9,"componentType":5126,"count":96,"max":[1,1,1],"min":[-1,-1,-1],"type":"VEC3"},{"bufferView":10,"componentType":5126,"count":96,"max":[0.37831249833106995,0.40632498264312744],"min":[0.0007812500116415322,0],"type":"VEC2"},{"bufferView":11,"componentType":5123,"count":132,"max":[95],"min":[0],"type":"SCALAR"},{"bufferView":12,"componentType":5126,"count":264,"max":[0.13124999403953552,0.15625,0.13124999403953552],"min":[-0.13124999403953552,-0.15625,-0.13124999403953552],"type":"VEC3"},{"bufferView":13,"componentType":5126,"count":264,"max":[0.9755930304527283,0.9527029395103455,0.9755930304527283],"min":[-0.9755930304527283,-0.9527029395103455,-0.9755930304527283],"type":"VEC3"},{"bufferView":14,"componentType":5126,"count":264,"max":[0.5376203060150146,0.5528651475906372],"min":[0.04771140590310097,0],"type":"VEC2"},{"bufferView":15,"componentType":5123,"count":360,"max":[263],"min":[0],"type":"SCALAR"},{"bufferView":16,"componentType":5126,"count":120,"max":[0.10955625027418137,0.4817231297492981,0.11249999701976776],"min":[-0.0583450011909008,-0.02022562548518181,-0.11249999701976776],"type":"VEC3"},{"bufferView":17,"componentType":5126,"count":120,"max":[0.9967321753501892,0.39038652181625366,0.9747978448867798],"min":[-0.999376654624939,-0.9479522109031677,-0.9719264507293701],"type":"VEC3"},{"bufferView":18,"componentType":5126,"count":120,"max":[0.4436718821525574,0.6350940465927124],"min":[0.0051359375938773155,0.0044165849685668945],"type":"VEC2"},{"bufferView":19,"componentType":5123,"count":144,"max":[119],"min":[0],"type":"SCALAR"},{"bufferView":20,"componentType":5126,"count":120,"max":[0.0583450011909008,0.46922311186790466,0.11249999701976776],"min":[-0.10955625027418137,-0.007725624833256006,-0.11249999701976776],"type":"VEC3"},{"bufferView":21,"componentType":5126,"count":120,"max":[0.9993097186088562,0.4075222909450531,0.9722084999084473],"min":[-0.9963825345039368,-0.9526547789573669,-0.9690558910369873],"type":"VEC3"},{"bufferView":22,"componentType":5126,"count":120,"max":[0.5125176310539246,0.6294893622398376],"min":[0.046875,0.09843236207962036],"type":"VEC2"},{"bufferView":23,"componentType":5123,"count":144,"max":[119],"min":[0],"type":"SCALAR"},{"bufferView":24,"componentType":5126,"count":72,"max":[0.20000000298023224,0.543749988079071,0.20000000298023224],"min":[-0.20000000298023224,0.01875000074505806,-0.20000000298023224],"type":"VEC3"},{"bufferView":25,"componentType":5126,"count":72,"max":[0.9336414337158203,0.378518670797348,0.9274317026138306],"min":[-0.9269468188285828,-1,-0.9332989454269409],"type":"VEC3"},{"bufferView":26,"componentType":5126,"count":72,"max":[0.272977352142334,0.43838560581207275],"min":[0,0],"type":"VEC2"},{"bufferView":27,"componentType":5123,"count":72,"max":[71],"min":[0],"type":"SCALAR"},{"bufferView":28,"componentType":5126,"count":384,"max":[0.10625000298023224,0.03565937653183937,0.10975437611341476],"min":[-0.10625000298023224,-0.03565937653183937,-0.10700812190771103],"type":"VEC3"},{"bufferView":29,"componentType":5126,"count":384,"max":[0.9708629250526428,0.880018949508667,1],"min":[-0.971788227558136,-0.9118025302886963,-1],"type":"VEC3"},{"bufferView":30,"componentType":5126,"count":384,"max":[0.609375,0.59375],"min":[0.0017374999588355422,0],"type":"VEC2"},{"bufferView":31,"componentType":5123,"count":576,"max":[383],"min":[0],"type":"SCALAR"},{"bufferView":32,"componentType":5126,"count":72,"max":[0.012500000186264515,0.5625,0.0625],"min":[-0.012500000186264515,-0.0625,-0.0625],"type":"VEC3"},{"bufferView":33,"componentType":5126,"count":72,"max":[0.9998000860214233,0.09950371831655502,0.9950371980667114],"min":[-0.9998000860214233,-1,-0.9950371980667114],"type":"VEC3"},{"bufferView":34,"componentType":5126,"count":72,"max":[0.49140626192092896,0.7351531386375427],"min":[0.003614218672737479,0],"type":"VEC2"},{"bufferView":35,"componentType":5123,"count":72,"max":[71],"min":[0],"type":"SCALAR"},{"bufferView":36,"componentType":5126,"count":192,"max":[0.01875000074505806,0.26249998807907104,0.01875000074505806],"min":[-0.01875000074505806,0.23749999701976776,-0.01875000074505806],"type":"VEC3"},{"bufferView":37,"componentType":5126,"count":192,"max":[1,1,1],"min":[-1,-1,-1],"type":"VEC3"},{"bufferView":38,"componentType":5126,"count":192,"max":[0.6170499920845032,0.6156250238418579],"min":[0.31562501192092896,0],"type":"VEC2"},{"bufferView":39,"componentType":5123,"count":288,"max":[191],"min":[0],"type":"SCALAR"},{"bufferView":40,"componentType":5126,"count":120,"max":[0.0062500000931322575,0.3375000059604645,0.0062500000931322575],"min":[-0.0062500000931322575,0.16249999403953552,-0.0062500000931322575],"type":"VEC3"},{"bufferView":41,"componentType":5126,"count":120,"max":[1,1,1],"min":[-1,-1,-1],"type":"VEC3"},{"bufferView":42,"componentType":5126,"count":120,"max":[0.6148437261581421,0.637499988079071],"min":[0.15889999270439148,0.296875],"type":"VEC2"},{"bufferView":43,"componentType":5123,"count":144,"max":[119],"min":[0],"type":"SCALAR"}],"materials":[{"pbrMetallicRoughness":{"metallicFactor":0,"roughnessFactor":1,"baseColorTexture":{"index":0}},"alphaMode":"MASK","alphaCutoff":0.05,"doubleSided":true},{"pbrMetallicRoughness":{"metallicFactor":0,"roughnessFactor":1,"baseColorTexture":{"index":1}},"alphaMode":"MASK","alphaCutoff":0.05,"doubleSided":true}],"textures":[{"sampler":0,"source":0,"name":"texture.png"},{"sampler":1,"source":1,"name":"texture_legs.png"}],"samplers":[{"magFilter":9728,"minFilter":9728,"wrapS":33071,"wrapT":33071},{"magFilter":9728,"minFilter":9728,"wrapS":33071,"wrapT":33071}],"images":[{"mimeType":"image/png","uri":"data:image/png;base64,"},{"mimeType":"image/png","uri":"data:image/png;base64,"}],"meshes":[{"primitives":[{"mode":4,"attributes":{"POSITION":0,"NORMAL":1,"TEXCOORD_0":2},"indices":3,"material":0}]},{"primitives":[{"mode":4,"attributes":{"POSITION":4,"NORMAL":5,"TEXCOORD_0":6},"indices":7,"material":1}]},{"primitives":[{"mode":4,"attributes":{"POSITION":8,"NORMAL":9,"TEXCOORD_0":10},"indices":11,"material":1}]},{"primitives":[{"mode":4,"attributes":{"POSITION":12,"NORMAL":13,"TEXCOORD_0":14},"indices":15,"material":0}]},{"primitives":[{"mode":4,"attributes":{"POSITION":16,"NORMAL":17,"TEXCOORD_0":18},"indices":19,"material":0}]},{"primitives":[{"mode":4,"attributes":{"POSITION":20,"NORMAL":21,"TEXCOORD_0":22},"indices":23,"material":0}]},{"primitives":[{"mode":4,"attributes":{"POSITION":24,"NORMAL":25,"TEXCOORD_0":26},"indices":27,"material":0}]},{"primitives":[{"mode":4,"attributes":{"POSITION":28,"NORMAL":29,"TEXCOORD_0":30},"indices":31,"material":0}]},{"primitives":[{"mode":4,"attributes":{"POSITION":32,"NORMAL":33,"TEXCOORD_0":34},"indices":35,"material":0}]},{"primitives":[{"mode":4,"attributes":{"POSITION":36,"NORMAL":37,"TEXCOORD_0":38},"indices":39,"material":0}]},{"primitives":[{"mode":4,"attributes":{"POSITION":40,"NORMAL":41,"TEXCOORD_0":42},"indices":43,"material":0}]}]}