{"asset":{"version":"2.0","generator":"Blockbench 4.12.6 glTF exporter"},"scenes":[{"nodes":[12],"name":"blockbench_export"}],"scene":0,"nodes":[{"translation":[0,0.25,0],"name":"body","mesh":0},{"translation":[-0.78125,0.75,-0.25],"name":"mirror_left","mesh":1},{"translation":[0.78125,0.75,-0.25],"name":"mirror_right","mesh":2},{"rotation":[0,0,0.7071067811865475,0.7071067811865476],"translation":[-0.375,0.0625,-0.5625],"name":"cylinder","mesh":3},{"translation":[0,0.25,0],"name":"wheel_left_front","children":[3]},{"rotation":[0,0,-0.7071067811865475,0.7071067811865476],"translation":[0.375,0.0625,-0.5625],"name":"cylinder","mesh":4},{"translation":[0,0.25,0],"name":"wheel_right_front","children":[5]},{"rotation":[0,0,-0.7071067811865475,0.7071067811865476],"translation":[0.375,0.0625,0.546875],"name":"cylinder","mesh":5},{"translation":[0,0.25,0],"name":"wheel_right_rear","children":[7]},{"rotation":[-0.7071067811865476,0.7071067811865475,4.329780281177466e-17,4.329780281177467e-17],"translation":[-0.375,0.0625,0.546875],"name":"cylinder","mesh":6},{"translation":[0,0.25,0],"name":"wheel_left_rear","children":[9]},{"name":"root","children":[0,1,2,4,6,8,10]},{"children":[11]}],"bufferViews":[{"buffer":0,"byteOffset":0,"byteLength":3936,"target":34962,"byteStride":12},{"buffer":0,"byteOffset":3936,"byteLength":3936,"target":34962,"byteStride":12},{"buffer":0,"byteOffset":7872,"byteLength":2624,"target":34962,"byteStride":8},{"buffer":0,"byteOffset":10496,"byteLength":984,"target":34963},{"buffer":0,"byteOffset":11480,"byteLength":672,"target":34962,"byteStride":12},{"buffer":0,"byteOffset":12152,"byteLength":672,"target":34962,"byteStride":12},{"buffer":0,"byteOffset":12824,"byteLength":448,"target":34962,"byteStride":8},{"buffer":0,"byteOffset":13272,"byteLength":168,"target":34963},{"buffer":0,"byteOffset":13440,"byteLength":672,"target":34962,"byteStride":12},{"buffer":0,"byteOffset":14112,"byteLength":672,"target":34962,"byteStride":12},{"buffer":0,"byteOffset":14784,"byteLength":448,"target":34962,"byteStride":8},{"buffer":0,"byteOffset":15232,"byteLength":168,"target":34963},{"buffer":0,"byteOffset":15400,"byteLength":1728,"target":34962,"byteStride":12},{"buffer":0,"byteOffset":17128,"byteLength":1728,"target":34962,"byteStride":12},{"buffer":0,"byteOffset":18856,"byteLength":1152,"target":34962,"byteStride":8},{"buffer":0,"byteOffset":20008,"byteLength":384,"target":34963},{"buffer":0,"byteOffset":20392,"byteLength":1728,"target":34962,"byteStride":12},{"buffer":0,"byteOffset":22120,"byteLength":1728,"target":34962,"byteStride":12},{"buffer":0,"byteOffset":23848,"byteLength":1152,"target":34962,"byteStride":8},{"buffer":0,"byteOffset":25000,"byteLength":384,"target":34963},{"buffer":0,"byteOffset":25384,"byteLength":1728,"target":34962,"byteStride":12},{"buffer":0,"byteOffset":27112,"byteLength":1728,"target":34962,"byteStride":12},{"buffer":0,"byteOffset":28840,"byteLength":1152,"target":34962,"byteStride":8},{"buffer":0,"byteOffset":29992,"byteLength":384,"target":34963},{"buffer":0,"byteOffset":30376,"byteLength":1728,"target":34962,"byteStride":12},{"buffer":0,"byteOffset":32104,"byteLength":1728,"target":34962,"byteStride":12},{"buffer":0,"byteOffset":33832,"byteLength":1152,"target":34962,"byteStride":8},{"buffer":0,"byteOffset":34984,"byteLength":384,"target":34963}],"buffers":[{"byteLength":35368,"uri":"data:application/octet-stream;base64,"}],"accessors":[{"bufferView":0,"componentType":5126,"count":328,"max":[0.5625,1.0625,1],"min":[-0.5625,0,-1],"type":"VEC3"},{"bufferView":1,"componentType":5126,"count":328,"max":[1,1,1],"min":[-1,-1,-1],"type":"VEC3"},{"bufferView":2,"componentType":5126,"count":328,"max":[0.5546875,0.53125],"min":[0,0],"type":"VEC2"},{"bufferView":3,"componentType":5123,"count":492,"max":[327],"min":[0],"type":"SCALAR"},{"bufferView":4,"componentType":5126,"count":56,"max":[0.21875,0.1875,-0.09375],"min":[-0.03125,0.0625,-0.15625],"type":"VEC3"},{"bufferView":5,"componentType":5126,"count":56,"max":[1,1,1],"min":[-0.8944271802902222,-1,-1],"type":"VEC3"},{"bufferView":6,"componentType":5126,"count":56,"max":[0.4921875,0.3671875],"min":[0.0005156249972060323,0],"type":"VEC2"},{"bufferView":7,"componentType":5123,"count":84,"max":[55],"min":[0],"type":"SCALAR"},{"bufferView":8,"componentType":5126,"count":56,"max":[0.03125,0.1875,-0.09375],"min":[-0.21875,0.0625,-0.15625],"type":"VEC3"},{"bufferView":9,"componentType":5126,"count":56,"max":[0.8944271802902222,1,1],"min":[-1,-1,-1],"type":"VEC3"},{"bufferView":10,"componentType":5126,"count":56,"max":[0.5703125,0.5703125],"min":[0,0.109375],"type":"VEC2"},{"bufferView":11,"componentType":5123,"count":84,"max":[55],"min":[0],"type":"SCALAR"},{"bufferView":12,"componentType":5126,"count":144,"max":[0.234375,0.25,0.171875],"min":[-0.234375,-0.0625,-0.171875],"type":"VEC3"},{"bufferView":13,"componentType":5126,"count":144,"max":[1,1,1],"min":[-1,-1,-1],"type":"VEC3"},{"bufferView":14,"componentType":5126,"count":144,"max":[0.527587890625,0.578125],"min":[0.033203125,0.0390625],"type":"VEC2"},{"bufferView":15,"componentType":5123,"count":192,"max":[143],"min":[0],"type":"SCALAR"},{"bufferView":16,"componentType":5126,"count":144,"max":[0.234375,0.25,0.171875],"min":[-0.234375,-0.0625,-0.171875],"type":"VEC3"},{"bufferView":17,"componentType":5126,"count":144,"max":[1,1,1],"min":[-1,-1,-1],"type":"VEC3"},{"bufferView":18,"componentType":5126,"count":144,"max":[0.5703125,0.578125],"min":[0.136474609375,0.1171875],"type":"VEC2"},{"bufferView":19,"componentType":5123,"count":192,"max":[143],"min":[0],"type":"SCALAR"},{"bufferView":20,"componentType":5126,"count":144,"max":[0.234375,0.25,0.171875],"min":[-0.234375,-0.0625,-0.171875],"type":"VEC3"},{"bufferView":21,"componentType":5126,"count":144,"max":[1,1,1],"min":[-1,-1,-1],"type":"VEC3"},{"bufferView":22,"componentType":5126,"count":144,"max":[0.5703125,0.578125],"min":[0,0.1953125],"type":"VEC2"},{"bufferView":23,"componentType":5123,"count":192,"max":[143],"min":[0],"type":"SCALAR"},{"bufferView":24,"componentType":5126,"count":144,"max":[0.234375,0.25,0.171875],"min":[-0.234375,-0.0625,-0.171875],"type":"VEC3"},{"bufferView":25,"componentType":5126,"count":144,"max":[1,1,1],"min":[-1,-1,-1],"type":"VEC3"},{"bufferView":26,"componentType":5126,"count":144,"max":[0.578125,0.5859375],"min":[0.03125,0],"type":"VEC2"},{"bufferView":27,"componentType":5123,"count":192,"max":[143],"min":[0],"type":"SCALAR"}],"materials":[{"pbrMetallicRoughness":{"metallicFactor":0,"roughnessFactor":1,"baseColorTexture":{"index":0}},"alphaMode":"MASK","alphaCutoff":0.05,"doubleSided":true}],"textures":[{"sampler":0,"source":0,"name":"texture"}],"samplers":[{"magFilter":9728,"minFilter":9728,"wrapS":33071,"wrapT":33071}],"images":[{"mimeType":"image/png","uri":"data:image/png;base64,"}],"meshes":[{"primitives":[{"mode":4,"attributes":{"POSITION":0,"NORMAL":1,"TEXCOORD_0":2},"indices":3,"material":0}]},{"primitives":[{"mode":4,"attributes":{"POSITION":4,"NORMAL":5,"TEXCOORD_0":6},"indices":7,"material":0}]},{"primitives":[{"mode":4,"attributes":{"POSITION":8,"NORMAL":9,"TEXCOORD_0":10},"indices":11,"material":0}]},{"primitives":[{"mode":4,"attributes":{"POSITION":12,"NORMAL":13,"TEXCOORD_0":14},"indices":15,"material":0}]},{"primitives":[{"mode":4,"attributes":{"POSITION":16,"NORMAL":17,"TEXCOORD_0":18},"indices":19,"material":0}]},{"primitives":[{"mode":4,"attributes":{"POSITION":20,"NORMAL":21,"TEXCOORD_0":22},"indices":23,"material":0}]},{"primitives":[{"mode":4,"attributes":{"POSITION":24,"NORMAL":25,"TEXCOORD_0":26},"indices":27,"material":0}]}]}